<svg xmlns="http://www.w3.org/2000/svg" width="32" height="32" viewBox="0 0 32 32"><path style="line-height:normal;text-indent:0;text-align:start;text-decoration-line:none;text-decoration-style:solid;text-decoration-color:#000;text-transform:none;block-progression:tb;white-space:normal;isolation:auto;mix-blend-mode:normal;solid-color:#000;solid-opacity:1" fill-rule="evenodd" d="M 14.5 1 A 0.50011987 0.49998036 0 0 0 14 1.5 L 14 5.2539062 L 11.283203 3.2773438 A 0.50011976 0.49998025 0 0 0 11.001953 3.1796875 A 0.50011976 0.49998025 0 0 0 10.787109 3.2207031 C 7.2911751 4.7393331 3.7967291 6.2587138 0.30078125 7.7773438 A 0.50011976 0.49998025 0 0 0 0.48046875 8.7363281 L 0.3359375 8.7363281 L 4.7050781 11.912109 L 0.20507812 15.183594 A 0.50011976 0.49998025 0 0 0 0.49414062 16.087891 L 0.39648438 16.087891 L 5 18.087891 L 5 25.492188 A 0.50011976 0.49998025 0 0 0 5.0039062 25.580078 A 0.50011976 0.49998025 0 0 0 5.3105469 26.107422 L 15.6875 30.537109 A 0.50011976 0.49998025 0 0 0 16.035156 30.630859 A 0.50011976 0.49998025 0 0 0 16.285156 30.546875 L 26.689453 26.107422 A 0.50011976 0.49998025 0 0 0 26.998047 25.595703 A 0.50020953 0.50006999 0 0 0 27.001953 25.558594 L 27.001953 18.054688 L 31.605469 16.056641 L 31.5 16.056641 A 0.50011976 0.49998025 0 0 0 31.794922 15.152344 L 27.146484 11.771484 A 0.50011976 0.49998025 0 0 0 27.125 11.716797 L 31.201172 8.7539062 L 31.039062 8.7539062 A 0.50011976 0.49998025 0 0 0 31.238281 7.7949219 C 27.742334 6.2762919 24.245934 4.7569112 20.75 3.2382812 A 0.50011976 0.49998025 0 0 0 20.554688 3.1972656 A 0.50011976 0.49998025 0 0 0 20.236328 3.3085938 L 17.996094 5.1074219 L 17.996094 1.5019531 A 0.50011987 0.49998036 0 0 0 17.496094 1.0019531 L 14.5 1.0019531 L 14.5 1 z M 15 2 L 16.994141 2 L 16.994141 9.0195312 A 0.50011987 0.49998036 0 0 0 17.480469 9.5195312 L 18.236328 9.5410156 A 0.50011987 0.49998036 0 0 0 18.248047 9.5410156 L 19.330078 9.5410156 L 16.011719 12.998047 L 12.677734 9.5273438 L 13.748047 9.5273438 A 0.50011987 0.49998036 0 0 0 13.759766 9.5273438 L 14.507812 9.5117188 A 0.50011987 0.49998036 0 0 0 15 9.0117188 L 15 2 z M 10.925781 4.2539062 L 13.931641 6.4394531 A 0.50011976 0.49998025 0 0 0 14 6.484375 L 14 8.5273438 L 13.746094 8.5371094 L 11.501953 8.5273438 A 0.50011987 0.49998036 0 0 0 11.005859 8.9648438 L 5.5332031 11.277344 L 1.5019531 8.3457031 C 4.6429847 6.9813325 7.7847389 5.6182769 10.925781 4.2539062 z M 20.628906 4.2773438 C 23.76464 5.6395276 26.899434 7.0011885 30.035156 8.3632812 L 26.191406 11.158203 L 20.986328 8.9335938 A 0.50011987 0.49998036 0 0 0 20.501953 8.5527344 L 18.257812 8.5449219 L 17.996094 8.5351562 L 17.996094 6.34375 A 0.50014472 0.5000052 0 0 0 18.160156 6.2578125 L 20.628906 4.2773438 z M 20.476562 9.8027344 L 25.384766 11.900391 L 16 15.912109 L 12.980469 14.621094 L 9.1035156 12.964844 L 6.6210938 11.904297 L 11.5625 9.8144531 L 15.650391 14.074219 A 0.50011987 0.49998036 0 0 0 16.373047 14.074219 L 20.476562 9.8027344 z M 26.482422 12.517578 L 30.498047 15.4375 L 26.451172 17.195312 A 0.50011976 0.49998025 0 0 0 26.169922 17.316406 L 21.074219 19.529297 L 17.003906 16.570312 L 26.482422 12.517578 z M 5.5488281 12.53125 L 8.7109375 13.882812 L 12.587891 15.541016 L 15.029297 16.585938 L 10.925781 19.568359 L 5.9472656 17.40625 A 0.50011976 0.49998025 0 0 0 5.4921875 17.125 A 0.50011976 0.49998025 0 0 0 5.3535156 17.148438 L 1.5019531 15.474609 L 5.5488281 12.53125 z M 16.5 17.4375 L 20.703125 20.494141 A 0.50011976 0.49998025 0 0 0 20.716797 20.507812 L 20.71875 20.507812 A 0.50011976 0.49998025 0 0 0 20.802734 20.556641 A 0.50011976 0.49998025 0 0 0 20.804688 20.556641 A 0.50011976 0.49998025 0 0 0 20.816406 20.566406 A 0.50011976 0.49998025 0 0 0 20.898438 20.591797 A 0.50011976 0.49998025 0 0 0 20.947266 20.601562 A 0.50011976 0.49998025 0 0 0 20.949219 20.601562 A 0.50011976 0.49998025 0 0 0 20.996094 20.611328 A 0.50011976 0.49998025 0 0 0 20.998047 20.611328 A 0.50011976 0.49998025 0 0 0 21.013672 20.611328 A 0.50011976 0.49998025 0 0 0 21.113281 20.599609 A 0.50011976 0.49998025 0 0 0 21.160156 20.587891 A 0.50011976 0.49998025 0 0 0 21.207031 20.568359 A 0.50011976 0.49998025 0 0 0 21.212891 20.568359 L 26 18.490234 L 26 25.314453 L 16.5 29.369141 L 16.5 17.4375 z M 15.5 17.476562 L 15.5 29.369141 L 6 25.314453 L 6 18.523438 L 10.787109 20.603516 A 0.50011976 0.49998025 0 0 0 10.833984 20.619141 A 0.50011976 0.49998025 0 0 0 10.869141 20.630859 A 0.50011976 0.49998025 0 0 0 10.882812 20.630859 A 0.50011976 0.49998025 0 0 0 10.931641 20.638672 A 0.50011976 0.49998025 0 0 0 10.982422 20.638672 A 0.50011976 0.49998025 0 0 0 10.984375 20.638672 A 0.50011976 0.49998025 0 0 0 10.986328 20.638672 A 0.50011976 0.49998025 0 0 0 11.037109 20.638672 A 0.50011976 0.49998025 0 0 0 11.085938 20.630859 A 0.50011976 0.49998025 0 0 0 11.283203 20.544922 L 15.5 17.476562 z M 20.470703 23.021484 A 0.50011976 0.49998025 0 0 0 20.291016 23.064453 L 17.632812 24.201172 A 0.50011976 0.49998025 0 1 0 18.025391 25.119141 L 20.683594 23.984375 A 0.50011976 0.49998025 0 0 0 20.470703 23.021484 z M 23.126953 23.703125 A 0.50011976 0.49998025 0 0 0 22.947266 23.746094 L 20.291016 24.880859 L 17.632812 26.017578 A 0.50040845 0.50026886 0 1 0 18.025391 26.9375 L 20.683594 25.800781 L 23.341797 24.664062 A 0.50011976 0.49998025 0 0 0 23.126953 23.703125 z " color="#000" enable-background="accumulate" font-family="sans-serif" font-weight="400" overflow="visible"/></svg>