<svg xmlns="http://www.w3.org/2000/svg" width="24" height="24" viewBox="0 0 24 24"><path d="M14.3 15.8c-1.4 0-2.8-.6-3.8-1.6-1.4-1.4-1.9-3.2-1.5-5 0-.6.5-1 1-.8.5.1.9.6.8 1.2-.2 1.1.1 2.3.9 3.1.9.9 2.1 1.2 3.2 1 .6-.1 1.2-.4 1.6-.8.1-.1.1-.1.2-.1l2.9-2.9c1.3-1.3 1.3-3.5 0-4.9-1.4-1.4-3.6-1.4-5-.1l-1.5 1.5-.1.1c-.3.4-1 .5-1.4.2-.4-.3-.5-1-.2-1.4.2-.2.3-.3.4-.3l1.5-1.5c2.1-2.1 5.6-2.1 7.7 0 2.2 2.2 2.2 5.6.1 7.8l-2.9 2.9-.3.3c-.7.6-1.5 1-2.5 1.2-.4 0-.8.1-1.1.1z"/><path d="M7.9 22.1c-1.4 0-2.8-.5-3.9-1.6-2.2-2.2-2.2-5.6-.1-7.8l2.9-2.9c.2 0 .2-.1.3-.2.7-.6 1.5-1 2.5-1.2 1.8-.4 3.6.2 5 1.5 1.4 1.4 1.9 3.2 1.5 5-.1.5-.6.9-1.2.8-.5-.1-.9-.6-.8-1.2.2-1.1-.1-2.3-.9-3.1-.9-.9-2.1-1.2-3.2-1-.6.1-1.2.4-1.6.8-.1.1-.1.1-.2.1l-2.9 2.9c-1.3 1.3-1.3 3.5 0 4.9 1.4 1.4 3.6 1.4 5 .1l1.5-1.5.1-.1c.3-.4 1-.5 1.4-.2.4.3.5 1 .2 1.4l-.3.3-1.5 1.5c-1 1-2.4 1.5-3.8 1.5z"/></svg>