<svg xmlns="http://www.w3.org/2000/svg" data-name="Layer 1" viewBox="0 0 24 24"><path d="M20,6.5H12.26758L11.00977,4.61328A2.49454,2.49454,0,0,0,8.92969,3.5H4A2.50294,2.50294,0,0,0,1.5,6V18A2.50294,2.50294,0,0,0,4,20.5H20A2.50294,2.50294,0,0,0,22.5,18V9A2.50294,2.50294,0,0,0,20,6.5ZM21.5,18A1.50164,1.50164,0,0,1,20,19.5H4A1.50164,1.50164,0,0,1,2.5,18V6A1.50164,1.50164,0,0,1,4,4.5H8.92969a1.4967,1.4967,0,0,1,1.248.668L11.584,7.27734A.50016.50016,0,0,0,12,7.5h8A1.50164,1.50164,0,0,1,21.5,9Z"/></svg>