<svg xmlns="http://www.w3.org/2000/svg" data-name="Layer 1" viewBox="0 0 64 64"><path d="M56 20H8a2 2 0 0 0-2 2v28a6 6 0 0 0 6 6h40a6 6 0 0 0 6-6V22a2 2 0 0 0-2-2zm-2 30a2 2 0 0 1-2 2H12a2 2 0 0 1-2-2V24h44z"/><path d="M56 24H8a2 2 0 01-2-2v-2a2 2 0 01.59-1.41l8.83-8.83A6 6 0 0119.66 8h24.68a6 6 0 014.24 1.76l8.83 8.83A2 2 0 0158 20v2a2 2 0 01-2 2zm-45.17-4h42.34l-7.41-7.41a2 2 0 00-1.42-.59H19.66a2 2 0 00-1.41.59zM39.41 41.41l-6 6a3.46 3.46 0 01-.29.25l-.32.17a2 2 0 01-.35.11 1.82 1.82 0 01-.76 0 2 2 0 01-.35-.11l-.32-.17a3.46 3.46 0 01-.29-.25l-6-6a2 2 0 012.82-2.82L30 41.17V30a2 2 0 014 0v11.17l2.59-2.58a2 2 0 012.82 2.82z"/></svg>