<svg xmlns="http://www.w3.org/2000/svg" width="20" height="20" viewBox="0 0 20 20"><path fill="#000" fill-rule="evenodd" d="M336.833 1011a1 1 0 0 1-1 1h-4a1 1 0 0 1 0-2h4a1 1 0 0 1 1 1zm5.167 5c0 .553-.615 1-1.167 1h-14c-.552 0-.833-.447-.833-1v-14c0-.552.281-1 .833-1h4c.552 0 1.167.448 1.167 1v1c0 1.106.728 2 1.833 2h7c.552 0 1.167.448 1.167 1v10zm-.167-13h-7c-.552 0-.833-.447-.833-1v-1c0-1.105-1.062-2-2.167-2h-6c-1.105 0-1.833.895-1.833 2v16c0 1.106.728 2 1.833 2h16c1.105 0 2.167-.894 2.167-2v-12c0-1.105-1.062-2-2.167-2z" transform="translate(-324 -999)"/></svg>