<svg xmlns="http://www.w3.org/2000/svg" enable-background="new 0 0 100 100" viewBox="0 0 100 100"><path d="M85,33H52h-4H15C9.5,33,5,37.5,5,43v14c0,5.5,4.5,10,10,10h33h4h33c5.5,0,10-4.5,10-10V43C95,37.5,90.5,33,85,33z M62,47h19
	v6H62V47z M9,57V43c0-3.3,2.7-6,6-6h33h4c3.3,0,6,2.7,6,6v10h-6v-8c0-1.1-0.9-2-2-2H17c-1.1,0-2,0.9-2,2v10c0,1.1,0.9,2,2,2h21
	c0,2.3,0.8,4.3,2,6H15C11.7,63,9,60.3,9,57z M38,53H19v-6h19V53z M91,57c0,3.3-2.7,6-6,6H52h-4c-3.3,0-6-2.7-6-6V47h6v8
	c0,1.1,0.9,2,2,2h33c1.1,0,2-0.9,2-2V45c0-1.1-0.9-2-2-2H62c0-2.3-0.8-4.3-2-6h25c3.3,0,6,2.7,6,6V57z"/></svg>