<svg xmlns="http://www.w3.org/2000/svg" width="20.48" height="20.48" fill-rule="evenodd" clip-rule="evenodd" image-rendering="optimizeQuality" shape-rendering="geometricPrecision" text-rendering="geometricPrecision" viewBox="0 0 541.86 541.86"><path fill-rule="nonzero" d="M62.71 146.46l145.15 0c4.81,-16.27 14.47,-30.43 27.3,-40.83 14.24,-11.55 32.41,-18.48 52.21,-18.54 11.89,-0.04 23.21,2.47 33.46,7.03 10.6,4.72 20.05,11.64 27.8,20.21 4.31,4.76 3.94,12.12 -0.82,16.44 -4.77,4.31 -12.13,3.94 -16.44,-0.83 -5.56,-6.15 -12.38,-11.13 -20.04,-14.54 -7.32,-3.26 -15.43,-5.05 -23.96,-5.03 -14.21,0.05 -27.27,5.03 -37.51,13.34 -7.45,6.04 -13.41,13.83 -17.25,22.75l246.54 0c6.46,0 11.7,5.23 11.7,11.69l0 119.82c0,6.45 -5.24,11.69 -11.7,11.69l-16.07 0 0 130.04c0,9.66 -3.94,18.43 -10.29,24.78 -6.35,6.35 -15.12,10.29 -24.78,10.29l-314.16 0c-9.66,0 -18.43,-3.94 -24.78,-10.29 -6.35,-6.35 -10.29,-15.12 -10.29,-24.78l0 -130.04 -16.07 0c-6.46,0 -11.7,-5.24 -11.7,-11.69l0 -119.82c0,-6.46 5.24,-11.69 11.7,-11.69zm206.03 78.71l4.38 0c9.66,0 18.43,3.94 24.78,10.29 6.35,6.35 10.29,15.12 10.29,24.78l0 6.04 143.2 0 16.07 0 0 -96.44 -393.06 0 0 96.44 16.07 0 143.2 0 0 -6.04c0,-9.66 3.94,-18.43 10.29,-24.78 6.35,-6.35 15.12,-10.29 24.78,-10.29zm39.31 64.49c-0.74,8.42 -4.49,16 -10.15,21.66 -6.35,6.35 -15.12,10.29 -24.78,10.29l-4.38 0c-9.66,0 -18.43,-3.94 -24.78,-10.29 -5.66,-5.66 -9.41,-13.24 -10.15,-21.66l-131.65 0 0 130.04c0,3.21 1.32,6.13 3.44,8.25 2.12,2.12 5.05,3.44 8.25,3.44l314.16 0c3.2,0 6.13,-1.32 8.25,-3.44 2.12,-2.12 3.44,-5.04 3.44,-8.25l0 -130.04 -131.65 0z"/></svg>